<svg width="24.681mm" height="38.422mm" version="1.1" viewBox="0 0 24.681 38.422" xmlns="http://www.w3.org/2000/svg" xmlns:cc="http://creativecommons.org/ns#" xmlns:dc="http://purl.org/dc/elements/1.1/" xmlns:rdf="http://www.w3.org/1999/02/22-rdf-syntax-ns#">
 <g transform="translate(-55.717 -82.313)">
   <path d="m56.784 84.546q2.9021-1.0914 5.5562-1.6619 2.6789-0.57051 5.0105-0.57051 5.4322 0 8.4832 2.3564 3.051 2.3316 3.051 6.4988 0 3.3486-2.1084 5.6059-2.1084 2.2324-5.9779 3.0262 4.5641 0.64492 7.0693 3.3238 2.5301 2.6541 2.5301 6.8957 0 5.1842-3.4975 7.9623-3.4727 2.7533-10.021 2.7533-2.9021 0-5.6803-0.62012-2.7533-0.62011-5.4818-1.8852v-7.1934h2.7781q0.24805 3.5719 2.4061 5.4074t6.0771 1.8356q3.7951 0 5.9779-2.1828 2.2076-2.2076 2.2076-6.0275 0-4.3656-2.2572-6.598-2.2572-2.2572-6.6229-2.2572h-2.3564v-2.5301h1.2402q4.3408 0 6.4988-1.7859 2.1828-1.8107 2.1828-5.4322 0-3.2494-1.7859-4.9609-1.7859-1.7363-5.1346-1.7363t-5.209 1.5875q-1.8355 1.5875-2.158 4.7129h-2.7781z"/>
 </g>
</svg>
